<?xml version="1.0" standalone="no"?>
<!DOCTYPE svg PUBLIC "-//W3C//DTD SVG 20010904//EN"
 "http://www.w3.org/TR/2001/REC-SVG-20010904/DTD/svg10.dtd">
<svg version="1.0" xmlns="http://www.w3.org/2000/svg"
 width="512.000000pt" height="512.000000pt" viewBox="0 0 512.000000 512.000000"
 preserveAspectRatio="xMidYMid meet">
<metadata>
Created by potrace 1.11, written by Peter Selinger 2001-2013
</metadata>
<g transform="translate(0.000000,512.000000) scale(0.100000,-0.100000)"
fill="#000000" stroke="none">
<path d="M960 2565 l0 -2205 833 0 832 0 778 777 777 778 0 1427 0 1428 -1610
0 -1610 0 0 -2205z m410 1999 c0 -5 -208 -365 -216 -373 -2 -2 -4 82 -4 187
l0 192 110 0 c61 0 110 -3 110 -6z m1739 -51 c-18 -32 -77 -132 -130 -223
l-97 -165 -274 -3 -275 -2 -65 112 c-36 62 -95 164 -132 226 l-65 112 535 0
535 0 -32 -57z m881 -68 c0 -69 -2 -125 -4 -125 -3 0 -116 192 -143 243 -2 4
30 7 71 7 l76 0 0 -125z m-1860 -122 c73 -126 133 -233 133 -239 0 -6 -60
-115 -134 -242 l-134 -232 -271 0 -271 0 -137 234 c-75 129 -136 237 -136 240
0 2 29 53 64 113 34 59 95 163 135 231 l72 122 273 0 273 0 133 -227z m1748
32 l112 -194 0 -78 0 -79 -114 -194 -113 -195 -274 0 -273 0 -136 234 -137
234 136 233 136 234 275 0 275 0 113 -195z m-863 -540 l137 -236 -53 -92 c-29
-51 -90 -155 -135 -232 l-82 -140 -274 -3 -273 -2 -138 234 -137 234 138 236
137 236 271 0 272 0 137 -235z m-1635 -236 c0 -10 -129 -237 -212 -374 -18
-29 -18 -21 -18 375 l0 404 115 -197 c63 -108 115 -202 115 -208z m2608 -136
l-3 -138 -75 130 c-41 71 -77 133 -78 137 -2 5 32 69 75 144 l78 135 3 -135
c1 -75 1 -198 0 -273z m-1858 -130 c73 -126 133 -233 133 -239 0 -6 -60 -115
-134 -242 l-134 -232 -270 0 -271 0 -137 235 c-75 129 -137 237 -137 239 0 5
225 394 256 444 14 22 15 22 288 22 l274 0 132 -227z m1748 33 l112 -193 0
-79 0 -79 -114 -195 -114 -195 -272 0 -272 0 -138 234 -137 234 136 234 136
233 275 0 275 0 113 -194z m-863 -541 l137 -235 -53 -93 c-29 -50 -90 -155
-135 -232 l-82 -140 -274 -3 -274 -2 -137 234 -137 235 138 236 137 235 272 0
271 0 137 -235z m-1635 -236 c0 -8 -212 -381 -226 -398 -2 -2 -4 177 -4 400
l0 403 115 -197 c63 -108 115 -202 115 -208z m2610 -1 c0 -232 -2 -270 -14
-253 -7 11 -43 73 -81 137 l-67 117 78 136 c43 74 80 135 81 135 2 0 3 -123 3
-272z m-1859 -265 c73 -125 132 -232 132 -238 0 -6 -59 -113 -132 -238 l-133
-227 -276 2 -276 3 -133 225 c-72 124 -132 228 -132 232 -1 6 212 376 255 446
14 22 15 22 288 22 l274 0 133 -227z m1747 33 c110 -189 112 -194 112 -255 l0
-61 -519 0 c-499 0 -520 1 -526 19 -4 13 38 92 132 255 l138 236 275 0 275 0
113 -194z m-1225 -313 l-223 -3 0 -465 0 -465 -48 0 -47 0 -137 236 -138 235
138 234 137 235 270 -2 270 -3 -222 -2z m-1384 -260 c61 -105 111 -197 111
-203 0 -9 -211 -381 -226 -399 -2 -2 -4 177 -4 399 0 222 2 401 4 399 1 -2 53
-90 115 -196z m2531 54 c0 -1 -265 -268 -590 -592 l-590 -590 0 593 0 592 590
0 c325 0 590 -1 590 -3z m-1670 -522 c74 -129 134 -240 132 -245 -1 -6 -61
-112 -133 -235 l-132 -225 -275 2 -276 3 -114 195 c-62 107 -123 211 -134 231
l-20 36 138 237 138 236 271 0 270 -1 135 -234z m300 -510 l0 -235 -185 0
c-153 0 -185 2 -178 13 4 8 66 114 137 235 l130 222 48 0 48 0 0 -235z m-1166
-23 c59 -100 109 -189 112 -197 5 -13 -12 -15 -110 -15 l-116 0 0 202 c0 111
2 199 4 197 2 -2 51 -86 110 -187z"/>
</g>
</svg>
