<?xml version="1.0" standalone="no"?>
<!DOCTYPE svg PUBLIC "-//W3C//DTD SVG 20010904//EN"
 "http://www.w3.org/TR/2001/REC-SVG-20010904/DTD/svg10.dtd">
<svg version="1.0" xmlns="http://www.w3.org/2000/svg"
 width="512.000000pt" height="512.000000pt" viewBox="0 0 512.000000 512.000000"
 preserveAspectRatio="xMidYMid meet">
<metadata>
Created by potrace 1.11, written by Peter Selinger 2001-2013
</metadata>
<g transform="translate(0.000000,512.000000) scale(0.100000,-0.100000)"
fill="#000000" stroke="none">
<path d="M960 2565 l0 -2205 833 0 832 0 778 778 777 777 0 1428 0 1427 -1610
0 -1610 0 0 -2205z m3030 1780 l0 -225 -1420 0 -1420 0 0 225 0 225 1420 0
1420 0 0 -225z m0 -545 l0 -250 -1420 0 -1420 0 0 250 0 250 1420 0 1420 0 0
-250z m0 -570 l0 -250 -1420 0 -1420 0 0 250 0 250 1420 0 1420 0 0 -250z m0
-565 l0 -245 -1420 0 -1420 0 0 245 0 245 1420 0 1420 0 0 -245z m0 -480 l0
-165 -780 0 -780 0 0 -85 0 -85 -640 0 -640 0 0 250 0 250 1420 0 1420 0 0
-165z m-190 -368 c0 -1 -265 -268 -590 -592 l-590 -590 0 593 0 592 590 0
c325 0 590 -1 590 -3z m-1370 -287 l0 -250 -640 0 -640 0 0 250 0 250 640 0
640 0 0 -250z m0 -570 l0 -250 -640 0 -640 0 0 250 0 250 640 0 640 0 0 -250z
m0 -365 l0 -45 -640 0 -640 0 0 45 0 45 640 0 640 0 0 -45z"/>
</g>
</svg>
