<?xml version="1.0" standalone="no"?>
<!DOCTYPE svg PUBLIC "-//W3C//DTD SVG 20010904//EN"
 "http://www.w3.org/TR/2001/REC-SVG-20010904/DTD/svg10.dtd">
<svg version="1.0" xmlns="http://www.w3.org/2000/svg"
 width="512.000000pt" height="512.000000pt" viewBox="0 0 512.000000 512.000000"
 preserveAspectRatio="xMidYMid meet">
<metadata>
Created by potrace 1.11, written by Peter Selinger 2001-2013
</metadata>
<g transform="translate(0.000000,512.000000) scale(0.100000,-0.100000)"
fill="#000000" stroke="none">
<path d="M960 2565 l0 -2205 833 0 832 0 778 778 777 777 0 1428 0 1427 -1610
0 -1610 0 0 -2205z m3030 730 l0 -1275 -780 0 -780 0 0 -735 0 -735 -640 0
-640 0 0 2010 0 2010 1420 0 1420 0 0 -1275z m-190 -1478 c0 -1 -265 -268
-590 -592 l-590 -590 0 593 0 592 590 0 c325 0 590 -1 590 -3z"/>
<path d="M1445 4275 c-66 -65 9 -173 92 -133 41 19 57 60 43 103 -20 60 -90
76 -135 30z"/>
<path d="M2092 4280 c-28 -26 -31 -99 -4 -123 28 -25 67 -30 100 -13 33 17 42
33 42 80 0 67 -88 102 -138 56z"/>
<path d="M2735 4275 c-35 -34 -33 -78 5 -117 26 -25 36 -29 63 -24 48 9 80 51
73 95 -11 70 -92 96 -141 46z"/>
<path d="M3382 4277 c-28 -29 -29 -86 -3 -118 14 -18 29 -24 61 -24 52 0 80
30 80 84 0 73 -89 110 -138 58z"/>
<path d="M1471 3649 c-34 -14 -50 -39 -51 -77 0 -84 117 -115 155 -41 37 71
-31 148 -104 118z"/>
<path d="M2115 3648 c-33 -17 -45 -40 -45 -80 0 -49 28 -78 75 -78 87 0 120
116 44 155 -33 18 -47 18 -74 3z"/>
<path d="M2764 3650 c-84 -34 -61 -160 29 -160 52 0 82 29 82 79 0 63 -56 104
-111 81z"/>
<path d="M3405 3648 c-51 -27 -62 -98 -22 -136 51 -48 137 -13 137 55 0 45 -9
62 -41 78 -33 18 -47 18 -74 3z"/>
<path d="M1445 2985 c-41 -40 -33 -105 16 -130 39 -21 64 -19 95 9 21 18 28
32 28 61 0 74 -88 112 -139 60z"/>
<path d="M2096 2989 c-21 -16 -26 -29 -26 -64 0 -35 5 -48 26 -64 57 -45 134
-8 134 64 0 72 -77 109 -134 64z"/>
<path d="M2757 3003 c-18 -5 -47 -52 -47 -77 0 -28 22 -64 47 -75 39 -18 63
-13 94 18 31 31 36 55 18 94 -17 38 -61 53 -112 40z"/>
<path d="M3385 2985 c-52 -51 -16 -145 55 -145 44 0 80 39 80 85 0 46 -36 85
-80 85 -19 0 -40 -9 -55 -25z"/>
<path d="M1442 2337 c-30 -32 -29 -87 1 -115 16 -15 36 -22 65 -22 37 0 45 4
63 33 38 62 2 127 -70 127 -26 0 -44 -7 -59 -23z"/>
<path d="M2090 2340 c-13 -13 -20 -33 -20 -60 0 -53 27 -80 80 -80 51 0 80 29
80 80 0 25 -7 43 -23 58 -30 29 -89 30 -117 2z"/>
<path d="M2736 2341 c-28 -31 -31 -82 -6 -114 17 -22 29 -27 64 -27 54 0 81
26 81 80 0 54 -27 80 -80 80 -28 0 -47 -6 -59 -19z"/>
<path d="M3382 2340 c-16 -15 -22 -33 -22 -60 0 -53 27 -80 80 -80 53 0 80 27
80 80 0 50 -29 80 -80 80 -23 0 -44 -8 -58 -20z"/>
<path d="M1463 1710 c-48 -19 -58 -95 -18 -135 53 -54 139 -15 139 62 0 61
-60 98 -121 73z"/>
<path d="M2120 1713 c-55 -21 -70 -101 -27 -141 73 -69 183 40 120 117 -19 22
-67 34 -93 24z"/>
<path d="M1445 1045 c-51 -50 -14 -139 58 -139 62 0 97 50 76 111 -19 58 -90
73 -134 28z"/>
<path d="M2092 1047 c-22 -23 -29 -68 -16 -102 4 -8 20 -23 36 -31 24 -12 36
-13 64 -4 57 19 73 83 33 134 -27 35 -86 36 -117 3z"/>
</g>
</svg>
