<?xml version="1.0" standalone="no"?>
<!DOCTYPE svg PUBLIC "-//W3C//DTD SVG 20010904//EN"
 "http://www.w3.org/TR/2001/REC-SVG-20010904/DTD/svg10.dtd">
<svg version="1.0" xmlns="http://www.w3.org/2000/svg"
 width="512.000000pt" height="512.000000pt" viewBox="0 0 512.000000 512.000000"
 preserveAspectRatio="xMidYMid meet">
<metadata>
Created by potrace 1.11, written by Peter Selinger 2001-2013
</metadata>
<g transform="translate(0.000000,512.000000) scale(0.100000,-0.100000)"
fill="#000000" stroke="none">
<path d="M960 2565 l0 -2205 833 0 832 0 778 778 777 777 0 1428 0 1427 -1610
0 -1610 0 0 -2205z m580 2002 c0 -1 -85 -88 -190 -192 l-190 -190 0 193 0 192
190 0 c105 0 190 -1 190 -3z m520 -187 c0 -104 -1 -190 -3 -190 -1 0 -88 86
-192 190 l-190 190 193 0 192 0 0 -190z m430 187 c0 -1 -83 -85 -185 -187
l-185 -185 0 188 0 187 185 0 c102 0 185 -1 185 -3z m520 -182 c0 -102 -1
-185 -3 -185 -1 0 -85 83 -187 185 l-185 185 188 0 187 0 0 -185z m440 182 c0
-1 -85 -88 -190 -192 l-190 -190 0 193 0 192 190 0 c105 0 190 -1 190 -3z
m540 -197 c0 -110 -1 -200 -3 -200 -1 0 -92 90 -202 200 l-200 200 203 0 202
0 0 -200z m-2410 -262 l0 -403 -202 202 -203 203 200 200 c110 110 201 200
202 200 2 0 3 -181 3 -402z m263 204 l197 -197 -200 -200 -200 -200 0 398 c0
218 1 397 3 397 1 0 91 -89 200 -198z m697 -204 l0 -403 -202 202 -203 203
200 200 c110 110 201 200 202 200 2 0 3 -181 3 -402z m263 204 l197 -197 -200
-200 -200 -200 0 398 c0 218 1 397 3 397 1 0 91 -89 200 -198z m687 -199 l0
-398 -200 200 -200 200 197 197 c109 109 199 198 200 198 2 0 3 -179 3 -397z
m262 -205 l-202 -203 0 405 0 405 202 -203 203 -202 -203 -202z m238 -275 l0
-418 -210 210 -210 210 207 207 c114 115 209 208 210 208 2 0 3 -188 3 -417z
m-712 204 l202 -202 -205 -205 -205 -205 0 408 c0 224 1 407 3 407 1 0 93 -91
205 -203z m-1915 -5 l197 -197 -200 -200 -200 -200 0 398 c0 218 1 397 3 397
1 0 91 -89 200 -198z m697 -204 l0 -403 -202 202 -203 203 200 200 c110 110
201 200 202 200 2 0 3 -181 3 -402z m263 204 l197 -197 -200 -200 -200 -200 0
398 c0 218 1 397 3 397 1 0 91 -89 200 -198z m687 -199 l0 -398 -200 200 -200
200 197 197 c109 109 199 198 200 198 2 0 3 -179 3 -397z m-470 -480 l0 -408
-205 205 -205 205 202 202 c112 112 204 203 205 203 2 0 3 -183 3 -407z m1218
204 l202 -202 -205 -205 -205 -205 0 408 c0 224 1 407 3 407 1 0 93 -91 205
-203z m-2178 -204 l0 -398 -200 200 -200 200 197 197 c109 109 199 198 200
198 2 0 3 -179 3 -397z m263 199 l197 -197 -200 -200 -200 -200 0 398 c0 218
1 397 3 397 1 0 91 -89 200 -198z m960 0 l197 -197 -200 -200 -200 -200 0 398
c0 218 1 397 3 397 1 0 91 -89 200 -198z m687 -199 l0 -398 -200 200 -200 200
197 197 c109 109 199 198 200 198 2 0 3 -179 3 -397z m500 -480 l0 -418 -210
210 -210 210 207 207 c114 115 209 208 210 208 2 0 3 -188 3 -417z m-2628
-195 l-202 -203 0 405 0 405 202 -203 203 -202 -203 -202z m698 200 l0 -403
-202 202 -203 203 200 200 c110 110 201 200 202 200 2 0 3 -181 3 -402z m1218
199 l202 -202 -205 -205 -205 -205 0 408 c0 224 1 407 3 407 1 0 93 -91 205
-203z m-955 -5 l197 -197 -200 -200 -200 -200 0 398 c0 218 1 397 3 397 1 0
91 -89 200 -198z m687 -199 l0 -398 -200 200 -200 200 197 197 c109 109 199
198 200 198 2 0 3 -179 3 -397z m-1430 -475 l0 -403 -202 202 -203 203 200
200 c110 110 201 200 202 200 2 0 3 -181 3 -402z m262 -200 l-202 -203 0 405
0 405 202 -203 203 -202 -203 -202z m698 312 l0 -290 -55 0 -55 0 0 -57 0 -58
-147 148 -148 147 200 200 c110 110 201 200 202 200 2 0 3 -130 3 -290z m1325
-200 l-90 -90 -112 0 -113 0 0 292 0 293 202 -202 203 -203 -90 -90z m-952 -2
l-88 -88 -112 0 -113 0 0 287 0 288 200 -200 200 -200 -87 -87z m577 197 l0
-285 -112 0 -113 0 -87 87 -88 88 197 197 c109 109 199 198 200 198 2 0 3
-128 3 -285z m500 -225 l0 -60 -62 0 -62 0 59 60 c33 33 61 60 62 60 2 0 3
-27 3 -60z m-2628 -562 l-202 -203 0 405 0 405 202 -203 203 -202 -203 -202z
m698 200 l0 -403 -202 202 -203 203 200 200 c110 110 201 200 202 200 2 0 3
-181 3 -402z m370 2 l0 -95 -155 -155 -155 -155 0 405 0 405 155 -155 155
-155 0 -95z m695 350 l49 -50 -52 0 -52 0 0 50 c0 28 1 50 3 50 1 0 25 -22 52
-50z m-115 -5 l0 -45 -47 0 -47 0 44 45 c24 25 45 45 47 45 2 0 3 -20 3 -45z
m790 -248 c0 -1 -265 -268 -590 -592 l-590 -590 0 593 0 592 590 0 c325 0 590
-1 590 -3z m-2220 -579 l0 -403 -202 202 -203 203 200 200 c110 110 201 200
202 200 2 0 3 -181 3 -402z m262 -200 l-202 -203 0 405 0 405 202 -203 203
-202 -203 -202z m588 200 l0 -293 -147 147 -148 148 145 145 c80 80 146 145
147 145 2 0 3 -132 3 -292z m-970 -583 l-105 -105 -97 0 -98 0 0 307 0 308
202 -202 203 -203 -105 -105z m600 200 l0 -305 -98 0 -97 0 -105 105 -105 105
200 200 c110 110 201 200 202 200 2 0 3 -137 3 -305z m370 -90 l0 -89 -62 -63
-62 -63 -93 0 -93 0 0 307 0 308 155 -155 155 -155 0 -90z m-850 -150 l0 -65
-67 0 -67 0 64 65 c35 36 66 65 67 65 2 0 3 -29 3 -65z m130 0 l64 -65 -67 0
-67 0 0 65 c0 36 1 65 3 65 1 0 32 -29 67 -65z m720 -50 c0 -8 -7 -15 -16 -15
-14 0 -14 3 -4 15 7 8 14 15 16 15 2 0 4 -7 4 -15z"/>
</g>
</svg>
