<?xml version="1.0" standalone="no"?>
<!DOCTYPE svg PUBLIC "-//W3C//DTD SVG 20010904//EN"
 "http://www.w3.org/TR/2001/REC-SVG-20010904/DTD/svg10.dtd">
<svg version="1.0" xmlns="http://www.w3.org/2000/svg"
 width="512.000000pt" height="512.000000pt" viewBox="0 0 512.000000 512.000000"
 preserveAspectRatio="xMidYMid meet">
<metadata>
Created by potrace 1.11, written by Peter Selinger 2001-2013
</metadata>
<g transform="translate(0.000000,512.000000) scale(0.100000,-0.100000)"
fill="#000000" stroke="none">
<path d="M960 2565 l0 -2205 833 0 832 0 778 778 777 777 0 1428 0 1427 -1610
0 -1610 0 0 -2205z m730 1740 l0 -255 -255 0 -255 0 0 255 0 255 255 0 255 0
0 -255z m580 0 l0 -255 -255 0 -255 0 0 255 0 255 255 0 255 0 0 -255z m590 0
l0 -255 -260 0 -260 0 0 255 0 255 260 0 260 0 0 -255z m580 0 l0 -255 -255 0
-255 0 0 255 0 255 255 0 255 0 0 -255z m550 0 l0 -255 -240 0 -240 0 0 255 0
255 240 0 240 0 0 -255z m-2300 -585 l0 -260 -255 0 -255 0 0 260 0 260 255 0
255 0 0 -260z m580 0 l0 -260 -255 0 -255 0 0 260 0 260 255 0 255 0 0 -260z
m590 0 l0 -260 -260 0 -260 0 0 260 0 260 260 0 260 0 0 -260z m580 0 l0 -260
-255 0 -255 0 0 260 0 260 255 0 255 0 0 -260z m550 0 l0 -260 -240 0 -240 0
0 260 0 260 240 0 240 0 0 -260z m-2300 -585 l0 -255 -255 0 -255 0 0 255 0
255 255 0 255 0 0 -255z m580 0 l0 -255 -255 0 -255 0 0 255 0 255 255 0 255
0 0 -255z m590 0 l0 -255 -260 0 -260 0 0 255 0 255 260 0 260 0 0 -255z m580
0 l0 -255 -255 0 -255 0 0 255 0 255 255 0 255 0 0 -255z m550 0 l0 -255 -240
0 -240 0 0 255 0 255 240 0 240 0 0 -255z m-2300 -580 l0 -255 -255 0 -255 0
0 255 0 255 255 0 255 0 0 -255z m580 0 l0 -255 -255 0 -255 0 0 255 0 255
255 0 255 0 0 -255z m590 0 l0 -255 -260 0 -260 0 0 255 0 255 260 0 260 0 0
-255z m580 0 l0 -255 -255 0 -255 0 0 255 0 255 255 0 255 0 0 -255z m550 0
l0 -255 -240 0 -240 0 0 255 0 255 240 0 240 0 0 -255z m-2300 -580 l0 -255
-255 0 -255 0 0 255 0 255 255 0 255 0 0 -255z m580 0 l0 -255 -255 0 -255 0
0 255 0 255 255 0 255 0 0 -255z m590 150 l0 -105 -215 0 -215 0 0 -150 0
-150 -45 0 -45 0 0 255 0 255 260 0 260 0 0 -105z m580 0 l0 -105 -255 0 -255
0 0 105 0 105 255 0 255 0 0 -105z m550 0 l0 -105 -240 0 -240 0 0 105 0 105
240 0 240 0 0 -105z m-190 -308 c0 -1 -265 -268 -590 -592 l-590 -590 0 593 0
592 590 0 c325 0 590 -1 590 -3z m-2110 -422 l0 -255 -255 0 -255 0 0 255 0
255 255 0 255 0 0 -255z m580 0 l0 -255 -255 0 -255 0 0 255 0 255 255 0 255
0 0 -255z m160 0 l0 -255 -45 0 -45 0 0 255 0 255 45 0 45 0 0 -255z m-740
-585 l0 -260 -255 0 -255 0 0 260 0 260 255 0 255 0 0 -260z m580 0 l0 -260
-255 0 -255 0 0 260 0 260 255 0 255 0 0 -260z m160 0 l0 -260 -45 0 -45 0 0
260 0 260 45 0 45 0 0 -260z"/>
</g>
</svg>
