<?xml version="1.0" standalone="no"?>
<!DOCTYPE svg PUBLIC "-//W3C//DTD SVG 20010904//EN"
 "http://www.w3.org/TR/2001/REC-SVG-20010904/DTD/svg10.dtd">
<svg version="1.0" xmlns="http://www.w3.org/2000/svg"
 width="512.000000pt" height="512.000000pt" viewBox="0 0 512.000000 512.000000"
 preserveAspectRatio="xMidYMid meet">
<metadata>
Created by potrace 1.11, written by Peter Selinger 2001-2013
</metadata>
<g transform="translate(0.000000,512.000000) scale(0.100000,-0.100000)"
fill="#000000" stroke="none">
<path d="M977 4760 c-10 -4 -12 -469 -12 -2200 l0 -2195 825 -3 825 -2 780
780 780 780 0 1420 c0 1255 -2 1420 -15 1421 -69 4 -3174 3 -3183 -1z m823
-462 c0 -239 -1 -258 -17 -259 -23 -1 -592 -1 -615 0 -17 1 -18 20 -18 254 0
140 2 256 4 258 2 2 149 4 325 4 l321 0 0 -257z m716 250 c8 -9 10 -495 1
-504 -3 -4 -149 -7 -324 -7 l-318 0 -3 249 c-1 137 -1 253 2 259 4 11 630 14
642 3z m725 -28 c0 -19 1 -136 1 -259 l1 -224 -304 1 c-167 0 -313 1 -325 1
-21 1 -21 4 -22 254 0 138 1 254 3 257 2 3 148 5 324 5 l321 0 1 -35z m714 28
c9 -9 11 -496 2 -504 -5 -5 -534 -9 -623 -5 -20 1 -21 5 -22 253 -1 138 1 254
3 257 5 9 632 7 640 -1z m-2155 -837 l0 -256 -313 2 c-171 0 -318 2 -324 2
-10 1 -13 59 -13 255 l0 253 325 0 325 0 0 -256z m723 6 c0 -136 -3 -250 -6
-254 -4 -3 -150 -6 -325 -6 l-317 1 -3 255 -2 254 326 -1 327 -1 0 -248z m718
230 c3 -93 1 -479 -4 -483 -3 -3 -148 -6 -324 -6 l-318 -1 -1 255 -2 255 324
1 324 1 1 -22z m722 -230 c0 -136 -2 -250 -5 -253 -5 -4 -364 -7 -584 -5 l-61
1 -1 247 c0 136 2 251 4 255 2 3 149 6 326 5 l321 -2 0 -248z m-2163 -582 l0
-252 -325 0 -325 0 0 253 0 253 325 -1 325 -1 0 -252z m721 242 c1 -19 1 -386
0 -443 l-1 -51 -325 0 -325 0 0 253 0 252 325 0 c238 0 325 -3 326 -11z m715
1 c5 -8 8 -300 5 -449 l-1 -46 -324 0 -324 0 0 246 c0 135 2 249 4 252 6 10
634 7 640 -3z m725 -22 c1 -33 1 -444 0 -462 -1 -8 -97 -11 -323 -10 l-323 1
-2 245 c0 135 1 248 3 251 2 4 148 7 324 7 l320 0 1 -32z m-2208 -546 l47 0 0
-250 0 -250 -145 0 c-80 0 -219 -1 -310 -1 -91 0 -172 1 -180 1 -13 0 -15 35
-15 250 l0 249 113 3 c61 2 186 2 277 1 91 -1 186 -3 213 -3z m765 -5 c7 -6 7
-484 0 -490 -5 -5 -104 -6 -510 -5 l-138 0 0 250 0 249 73 3 c105 4 569 -1
575 -7z m720 0 c3 -2 5 -114 5 -247 l1 -243 -110 -5 c-60 -3 -206 -4 -325 -2
l-217 3 0 249 1 249 151 3 c194 4 488 0 494 -7z m720 0 c6 -6 7 -483 1 -490
-4 -4 -263 -6 -551 -5 l-96 0 0 248 0 247 32 5 c40 6 607 2 614 -5z m-2158
-822 l0 -253 -45 -1 c-25 0 -65 0 -90 0 -25 0 -151 0 -280 0 l-235 1 0 253 0
254 325 0 325 0 0 -254z m721 218 c1 -34 1 -136 0 -175 -1 -15 -8 -17 -46 -14
l-45 3 0 -142 0 -143 -120 -1 c-66 0 -140 0 -165 0 -25 0 -97 0 -160 0 l-115
1 0 253 0 254 325 0 325 0 1 -36z m720 2 c0 -18 1 -53 1 -78 0 -25 -1 -60 -1
-79 l-1 -34 -323 0 -324 0 -1 106 c0 58 1 109 3 112 2 4 148 7 325 7 l320 0 1
-34z m720 10 c0 -12 1 -41 1 -63 0 -22 -1 -62 -1 -89 l-1 -50 -324 1 -324 0 0
112 0 113 324 0 324 0 1 -24z m-151 -393 c0 -3 -268 -273 -595 -600 -412 -412
-595 -589 -596 -575 0 27 0 1123 0 1155 l1 25 595 0 c327 0 595 -2 595 -5z
m-2010 -415 l0 -252 -325 0 -325 -1 0 252 0 252 325 1 325 0 0 -252z m630 0
l0 -253 -280 1 -280 0 0 252 0 252 280 0 280 0 0 -252z m-632 -575 l-3 -255
-310 -1 c-170 0 -316 2 -322 4 -10 3 -13 62 -13 251 0 136 2 250 4 252 2 2
149 4 325 4 l321 0 -2 -255z m600 251 l32 -1 -2 -252 -3 -253 -265 -1 c-146 0
-271 2 -277 4 -10 3 -13 63 -13 252 l0 249 23 3 c18 2 393 2 505 -1z"/>
</g>
</svg>
