<?xml version="1.0" standalone="no"?>
<!DOCTYPE svg PUBLIC "-//W3C//DTD SVG 20010904//EN"
 "http://www.w3.org/TR/2001/REC-SVG-20010904/DTD/svg10.dtd">
<svg version="1.0" xmlns="http://www.w3.org/2000/svg"
 width="512.000000pt" height="512.000000pt" viewBox="0 0 512.000000 512.000000"
 preserveAspectRatio="xMidYMid meet">
<metadata>
Created by potrace 1.11, written by Peter Selinger 2001-2013
</metadata>
<g transform="translate(0.000000,512.000000) scale(0.100000,-0.100000)"
fill="#000000" stroke="none">
<path d="M960 2565 l0 -2205 833 0 832 0 778 778 777 777 0 1428 0 1427 -1610
0 -1610 0 0 -2205z m1080 2002 c0 -1 -96 -98 -213 -215 l-212 -212 -215 215
-215 215 428 0 c235 0 427 -1 427 -3z m732 -209 l-212 -213 -212 213 -213 212
425 0 425 0 -213 -212z m1158 209 c0 -1 -96 -98 -213 -215 l-212 -212 -215
215 -215 215 428 0 c235 0 427 -1 427 -3z m60 -237 l0 -200 -202 0 -203 0 200
200 c110 110 201 200 202 200 2 0 3 -90 3 -200z m-1700 -5 l195 -195 -395 0
-395 0 195 195 c107 107 197 195 200 195 3 0 93 -88 200 -195z m940 0 l195
-195 -390 0 -390 0 195 195 c107 107 195 195 195 195 0 0 88 -88 195 -195z
m-1885 -5 l190 -190 -193 0 -192 0 0 190 c0 105 1 190 3 190 1 0 88 -85 192
-190z m195 -253 c0 -1 -88 -90 -195 -197 l-195 -195 0 198 0 197 195 0 c107 0
195 -1 195 -3z m752 -199 l-202 -203 -202 203 -203 202 405 0 405 0 -203 -202z
m1138 199 c0 -1 -89 -91 -198 -200 l-197 -197 -200 200 -200 200 398 0 c218 0
397 -1 397 -3z m560 -202 c0 -113 -1 -205 -3 -205 -1 0 -94 92 -207 205 l-205
205 208 0 207 0 0 -205z m-2175 -15 l200 -200 -400 0 -400 0 200 200 c110 110
200 200 200 200 0 0 90 -90 200 -200z m1890 0 l200 -200 -400 0 -400 0 200
200 c110 110 200 200 200 200 0 0 90 -90 200 -200z m-945 -5 l195 -195 -395 0
-395 0 195 195 c107 107 197 195 200 195 3 0 93 -88 200 -195z m-949 -449
l-195 -195 -135 129 c-75 71 -165 158 -201 194 l-64 66 394 0 395 0 -194 -194z
m946 -3 l-197 -198 -197 198 -198 197 395 0 395 0 -198 -197z m950 0 l-197
-198 -197 198 -198 197 395 0 395 0 -198 -197z m-472 -13 l200 -200 -400 0
-400 0 200 200 c110 110 200 200 200 200 0 0 90 -90 200 -200z m755 0 l0 -200
-202 0 -203 0 200 200 c110 110 201 200 202 200 2 0 3 -90 3 -200z m-1700 -5
l195 -195 -395 0 -395 0 195 195 c107 107 197 195 200 195 3 0 93 -88 200
-195z m-945 -5 l190 -190 -193 0 -192 0 0 190 c0 105 1 190 3 190 1 0 88 -85
192 -190z m175 -273 c-14 -13 -103 -99 -197 -192 l-173 -168 0 191 0 192 197
0 198 0 -25 -23z m960 20 c0 -1 -89 -91 -198 -200 l-197 -197 -200 200 -200
200 398 0 c218 0 397 -1 397 -3z m950 0 c0 -1 -89 -91 -198 -200 l-197 -197
-200 200 -200 200 398 0 c218 0 397 -1 397 -3z m560 -197 c0 -110 -1 -200 -3
-200 -1 0 -92 90 -202 200 l-200 200 203 0 202 0 0 -200z m-2180 -15 l195
-195 -390 0 -390 0 195 195 c107 107 195 195 195 195 0 0 88 -88 195 -195z
m950 0 l195 -195 -395 0 -395 0 195 195 c107 107 197 195 200 195 3 0 93 -88
200 -195z m940 0 l195 -195 -390 0 -390 0 195 195 c107 107 195 195 195 195 0
0 88 -88 195 -195z m-1690 -258 c0 -1 -89 -91 -198 -200 l-197 -197 -200 200
-200 200 398 0 c218 0 397 -1 397 -3z m950 0 c0 -1 -89 -91 -198 -200 l-197
-197 -200 200 -200 200 398 0 c218 0 397 -1 397 -3z m940 0 c0 -1 -89 -91
-198 -200 l-197 -197 -200 200 -200 200 398 0 c218 0 397 -1 397 -3z m90 -212
l0 -205 -207 0 -208 0 205 205 c113 113 206 205 207 205 2 0 3 -92 3 -205z
m-1705 -5 l200 -200 -400 0 -400 0 200 200 c110 110 200 200 200 200 0 0 90
-90 200 -200z m950 0 l200 -200 -400 0 -400 0 200 200 c110 110 200 200 200
200 0 0 90 -90 200 -200z m-1885 -5 l195 -195 -198 0 -197 0 0 195 c0 107 1
195 3 195 1 0 90 -88 197 -195z m180 -258 c0 -1 -85 -88 -190 -192 l-190 -190
0 193 0 192 190 0 c105 0 190 -1 190 -3z m757 -194 l-197 -198 -197 198 -198
197 395 0 395 0 -198 -197z m1063 122 l-74 -75 -246 0 -246 0 -74 75 -74 75
394 0 394 0 -74 -75z m640 0 l0 -75 -128 0 -128 0 -74 75 -74 75 202 0 202 0
0 -75z m-2175 -135 l200 -200 -400 0 -400 0 200 200 c110 110 200 200 200 200
0 0 90 -90 200 -200z m1760 130 l69 -70 -139 0 -139 0 69 70 c38 39 70 70 70
70 0 0 32 -31 70 -70z m-945 -5 l64 -65 -132 0 -132 0 0 -130 0 -130 -132 0
-133 0 195 195 c107 107 197 195 200 195 3 0 35 -29 70 -65z m1170 -268 c0 -1
-265 -268 -590 -592 l-590 -590 0 593 0 592 590 0 c325 0 590 -1 590 -3z
m-1790 -120 c0 -1 -89 -91 -198 -200 l-197 -197 -200 200 -200 200 398 0 c218
0 397 -1 397 -3z m420 -127 c0 -71 -1 -130 -3 -130 -1 0 -61 59 -132 130
l-130 130 133 0 132 0 0 -130z m-168 -57 c136 -136 168 -173 168 -195 l0 -28
-367 0 -368 0 195 195 c107 107 197 195 200 195 3 0 80 -75 172 -167z m-917
-33 l190 -190 -193 0 -192 0 0 190 c0 105 1 190 3 190 1 0 88 -85 192 -190z
m195 -253 c0 -1 -88 -90 -195 -197 l-195 -195 0 198 0 197 195 0 c107 0 195
-1 195 -3z m890 -25 c0 -22 -32 -60 -173 -200 l-172 -172 -200 200 -200 200
373 0 372 0 0 -28z m-620 -187 l195 -195 -390 0 -390 0 195 195 c107 107 195
195 195 195 0 0 88 -88 195 -195z m620 -65 l0 -130 -132 0 -133 0 130 130 c71
72 131 130 132 130 2 0 3 -58 3 -130z m-520 -295 l-105 -105 -190 0 -190 0
-105 105 -105 105 400 0 400 0 -105 -105z m520 0 l0 -105 -33 0 c-28 0 -47 14
-137 105 l-105 105 138 0 137 0 0 -105z m-250 -10 l95 -95 -190 0 -190 0 95
95 c52 52 95 95 95 95 0 0 43 -43 95 -95z m-935 -5 l90 -90 -93 0 -92 0 0 90
c0 50 1 90 3 90 1 0 43 -40 92 -90z"/>
</g>
</svg>
